<svg xmlns="http://www.w3.org/2000/svg" width="900" height="520" viewBox="0 0 900 520">
<rect width="100%" height="100%" fill="white"/>
<text x="450.0" y="28" text-anchor="middle" font-family="Arial" font-size="20">Per-round Average Delay at RSU Cache Capacity 350</text>
<line x1="80" y1="50" x2="80" y2="450" stroke="#333"/>
<line x1="80" y1="450" x2="720" y2="450" stroke="#333"/>
<line x1="80" y1="450.00" x2="720" y2="450.00" stroke="#ddd"/>
<text x="70" y="454.00" text-anchor="end" font-family="Arial" font-size="12">0.00</text>
<line x1="80" y1="370.00" x2="720" y2="370.00" stroke="#ddd"/>
<text x="70" y="374.00" text-anchor="end" font-family="Arial" font-size="12">14.47</text>
<line x1="80" y1="290.00" x2="720" y2="290.00" stroke="#ddd"/>
<text x="70" y="294.00" text-anchor="end" font-family="Arial" font-size="12">28.93</text>
<line x1="80" y1="210.00" x2="720" y2="210.00" stroke="#ddd"/>
<text x="70" y="214.00" text-anchor="end" font-family="Arial" font-size="12">43.40</text>
<line x1="80" y1="130.00" x2="720" y2="130.00" stroke="#ddd"/>
<text x="70" y="134.00" text-anchor="end" font-family="Arial" font-size="12">57.87</text>
<line x1="80" y1="50.00" x2="720" y2="50.00" stroke="#ddd"/>
<text x="70" y="54.00" text-anchor="end" font-family="Arial" font-size="12">72.33</text>
<text x="80.00" y="472" text-anchor="middle" font-family="Arial" font-size="12">0</text>
<text x="151.11" y="472" text-anchor="middle" font-family="Arial" font-size="12">1</text>
<text x="222.22" y="472" text-anchor="middle" font-family="Arial" font-size="12">2</text>
<text x="293.33" y="472" text-anchor="middle" font-family="Arial" font-size="12">3</text>
<text x="364.44" y="472" text-anchor="middle" font-family="Arial" font-size="12">4</text>
<text x="435.56" y="472" text-anchor="middle" font-family="Arial" font-size="12">5</text>
<text x="506.67" y="472" text-anchor="middle" font-family="Arial" font-size="12">6</text>
<text x="577.78" y="472" text-anchor="middle" font-family="Arial" font-size="12">7</text>
<text x="648.89" y="472" text-anchor="middle" font-family="Arial" font-size="12">8</text>
<text x="720.00" y="472" text-anchor="middle" font-family="Arial" font-size="12">9</text>
<polyline points="80.00,87.86 151.11,79.63 222.22,127.49 293.33,185.40 364.44,192.05 435.56,189.03 506.67,194.23 577.78,158.71 648.89,163.63 720.00,179.93" fill="none" stroke="#d62728" stroke-width="2"/>
<circle cx="80.00" cy="87.86" r="3" fill="#d62728"/>
<circle cx="151.11" cy="79.63" r="3" fill="#d62728"/>
<circle cx="222.22" cy="127.49" r="3" fill="#d62728"/>
<circle cx="293.33" cy="185.40" r="3" fill="#d62728"/>
<circle cx="364.44" cy="192.05" r="3" fill="#d62728"/>
<circle cx="435.56" cy="189.03" r="3" fill="#d62728"/>
<circle cx="506.67" cy="194.23" r="3" fill="#d62728"/>
<circle cx="577.78" cy="158.71" r="3" fill="#d62728"/>
<circle cx="648.89" cy="163.63" r="3" fill="#d62728"/>
<circle cx="720.00" cy="179.93" r="3" fill="#d62728"/>
<line x1="745" y1="70" x2="765" y2="70" stroke="#d62728" stroke-width="2"/>
<text x="773" y="74" font-family="Arial" font-size="12">Thompson Sampling</text>
<polyline points="80.00,127.86 151.11,86.25 222.22,155.70 293.33,210.01 364.44,185.57 435.56,174.45 506.67,160.04 577.78,158.76 648.89,193.29 720.00,193.79" fill="none" stroke="#1f77b4" stroke-width="2"/>
<circle cx="80.00" cy="127.86" r="3" fill="#1f77b4"/>
<circle cx="151.11" cy="86.25" r="3" fill="#1f77b4"/>
<circle cx="222.22" cy="155.70" r="3" fill="#1f77b4"/>
<circle cx="293.33" cy="210.01" r="3" fill="#1f77b4"/>
<circle cx="364.44" cy="185.57" r="3" fill="#1f77b4"/>
<circle cx="435.56" cy="174.45" r="3" fill="#1f77b4"/>
<circle cx="506.67" cy="160.04" r="3" fill="#1f77b4"/>
<circle cx="577.78" cy="158.76" r="3" fill="#1f77b4"/>
<circle cx="648.89" cy="193.29" r="3" fill="#1f77b4"/>
<circle cx="720.00" cy="193.79" r="3" fill="#1f77b4"/>
<line x1="745" y1="92" x2="765" y2="92" stroke="#1f77b4" stroke-width="2"/>
<text x="773" y="96" font-family="Arial" font-size="12">CP-SAT</text>
<text x="400.0" y="500" text-anchor="middle" font-family="Arial" font-size="14">Round</text>
<text x="22" y="250.0" text-anchor="middle" transform="rotate(-90 22 250.0)" font-family="Arial" font-size="14">Average Delay (ms)</text>
</svg>