<svg xmlns="http://www.w3.org/2000/svg" width="900" height="520" viewBox="0 0 900 520">
<rect width="100%" height="100%" fill="white"/>
<text x="450.0" y="28" text-anchor="middle" font-family="Arial" font-size="20">Baseline Average Delay vs Synchronized RSU Cache Capacity</text>
<line x1="80" y1="50" x2="80" y2="450" stroke="#333"/>
<line x1="80" y1="450" x2="720" y2="450" stroke="#333"/>
<line x1="80" y1="450.00" x2="720" y2="450.00" stroke="#ddd"/>
<text x="70" y="454.00" text-anchor="end" font-family="Arial" font-size="12">0.00</text>
<line x1="80" y1="370.00" x2="720" y2="370.00" stroke="#ddd"/>
<text x="70" y="374.00" text-anchor="end" font-family="Arial" font-size="12">14.12</text>
<line x1="80" y1="290.00" x2="720" y2="290.00" stroke="#ddd"/>
<text x="70" y="294.00" text-anchor="end" font-family="Arial" font-size="12">28.23</text>
<line x1="80" y1="210.00" x2="720" y2="210.00" stroke="#ddd"/>
<text x="70" y="214.00" text-anchor="end" font-family="Arial" font-size="12">42.35</text>
<line x1="80" y1="130.00" x2="720" y2="130.00" stroke="#ddd"/>
<text x="70" y="134.00" text-anchor="end" font-family="Arial" font-size="12">56.47</text>
<line x1="80" y1="50.00" x2="720" y2="50.00" stroke="#ddd"/>
<text x="70" y="54.00" text-anchor="end" font-family="Arial" font-size="12">70.59</text>
<text x="80.00" y="472" text-anchor="middle" font-family="Arial" font-size="12">50</text>
<text x="171.43" y="472" text-anchor="middle" font-family="Arial" font-size="12">100</text>
<text x="262.86" y="472" text-anchor="middle" font-family="Arial" font-size="12">150</text>
<text x="354.29" y="472" text-anchor="middle" font-family="Arial" font-size="12">200</text>
<text x="445.71" y="472" text-anchor="middle" font-family="Arial" font-size="12">250</text>
<text x="537.14" y="472" text-anchor="middle" font-family="Arial" font-size="12">300</text>
<text x="628.57" y="472" text-anchor="middle" font-family="Arial" font-size="12">350</text>
<text x="720.00" y="472" text-anchor="middle" font-family="Arial" font-size="12">400</text>
<polyline points="80.00,86.73 171.43,97.74 262.86,109.46 354.29,113.17 445.71,131.76 537.14,142.56 628.57,148.59 720.00,153.81" fill="none" stroke="#d62728" stroke-width="2"/>
<circle cx="80.00" cy="86.73" r="3" fill="#d62728"/>
<circle cx="171.43" cy="97.74" r="3" fill="#d62728"/>
<circle cx="262.86" cy="109.46" r="3" fill="#d62728"/>
<circle cx="354.29" cy="113.17" r="3" fill="#d62728"/>
<circle cx="445.71" cy="131.76" r="3" fill="#d62728"/>
<circle cx="537.14" cy="142.56" r="3" fill="#d62728"/>
<circle cx="628.57" cy="148.59" r="3" fill="#d62728"/>
<circle cx="720.00" cy="153.81" r="3" fill="#d62728"/>
<line x1="745" y1="70" x2="765" y2="70" stroke="#d62728" stroke-width="2"/>
<text x="773" y="74" font-family="Arial" font-size="12">Thompson Sampling</text>
<polyline points="80.00,79.63 171.43,96.97 262.86,113.42 354.29,129.51 445.71,137.88 537.14,149.13 628.57,157.55 720.00,163.48" fill="none" stroke="#1f77b4" stroke-width="2"/>
<circle cx="80.00" cy="79.63" r="3" fill="#1f77b4"/>
<circle cx="171.43" cy="96.97" r="3" fill="#1f77b4"/>
<circle cx="262.86" cy="113.42" r="3" fill="#1f77b4"/>
<circle cx="354.29" cy="129.51" r="3" fill="#1f77b4"/>
<circle cx="445.71" cy="137.88" r="3" fill="#1f77b4"/>
<circle cx="537.14" cy="149.13" r="3" fill="#1f77b4"/>
<circle cx="628.57" cy="157.55" r="3" fill="#1f77b4"/>
<circle cx="720.00" cy="163.48" r="3" fill="#1f77b4"/>
<line x1="745" y1="92" x2="765" y2="92" stroke="#1f77b4" stroke-width="2"/>
<text x="773" y="96" font-family="Arial" font-size="12">CP-SAT</text>
<text x="400.0" y="500" text-anchor="middle" font-family="Arial" font-size="14">mRSU/fRSU Cache Capacity</text>
<text x="22" y="250.0" text-anchor="middle" transform="rotate(-90 22 250.0)" font-family="Arial" font-size="14">Average Delay (ms)</text>
</svg>