<svg xmlns="http://www.w3.org/2000/svg" width="980" height="560" viewBox="0 0 980 560">
<rect width="100%" height="100%" fill="white"/>
<line x1="82" y1="34" x2="82" y2="484" stroke="#333"/>
<line x1="82" y1="484" x2="932" y2="484" stroke="#333"/>
<line x1="82" y1="484.00" x2="932" y2="484.00" stroke="#c4c4c4" stroke-dasharray="3 2"/>
<text x="72" y="491.00" text-anchor="end" font-family="Arial" font-size="22" font-weight="700">9</text>
<line x1="82" y1="394.00" x2="932" y2="394.00" stroke="#c4c4c4" stroke-dasharray="3 2"/>
<text x="72" y="401.00" text-anchor="end" font-family="Arial" font-size="22" font-weight="700">24</text>
<line x1="82" y1="304.00" x2="932" y2="304.00" stroke="#c4c4c4" stroke-dasharray="3 2"/>
<text x="72" y="311.00" text-anchor="end" font-family="Arial" font-size="22" font-weight="700">39</text>
<line x1="82" y1="214.00" x2="932" y2="214.00" stroke="#c4c4c4" stroke-dasharray="3 2"/>
<text x="72" y="221.00" text-anchor="end" font-family="Arial" font-size="22" font-weight="700">55</text>
<line x1="82" y1="124.00" x2="932" y2="124.00" stroke="#c4c4c4" stroke-dasharray="3 2"/>
<text x="72" y="131.00" text-anchor="end" font-family="Arial" font-size="22" font-weight="700">70</text>
<line x1="82" y1="34.00" x2="932" y2="34.00" stroke="#c4c4c4" stroke-dasharray="3 2"/>
<text x="72" y="41.00" text-anchor="end" font-family="Arial" font-size="22" font-weight="700">85</text>
<line x1="203.43" y1="34" x2="203.43" y2="484" stroke="#c4c4c4" stroke-dasharray="3 2"/>
<line x1="324.86" y1="34" x2="324.86" y2="484" stroke="#c4c4c4" stroke-dasharray="3 2"/>
<line x1="446.29" y1="34" x2="446.29" y2="484" stroke="#c4c4c4" stroke-dasharray="3 2"/>
<line x1="567.71" y1="34" x2="567.71" y2="484" stroke="#c4c4c4" stroke-dasharray="3 2"/>
<line x1="689.14" y1="34" x2="689.14" y2="484" stroke="#c4c4c4" stroke-dasharray="3 2"/>
<line x1="810.57" y1="34" x2="810.57" y2="484" stroke="#c4c4c4" stroke-dasharray="3 2"/>
<line x1="932.00" y1="34" x2="932.00" y2="484" stroke="#c4c4c4" stroke-dasharray="3 2"/>
<text x="82.00" y="522" text-anchor="middle" font-family="Arial" font-size="22" font-weight="700">50</text>
<text x="203.43" y="522" text-anchor="middle" font-family="Arial" font-size="22" font-weight="700">100</text>
<text x="324.86" y="522" text-anchor="middle" font-family="Arial" font-size="22" font-weight="700">150</text>
<text x="446.29" y="522" text-anchor="middle" font-family="Arial" font-size="22" font-weight="700">200</text>
<text x="567.71" y="522" text-anchor="middle" font-family="Arial" font-size="22" font-weight="700">250</text>
<text x="689.14" y="522" text-anchor="middle" font-family="Arial" font-size="22" font-weight="700">300</text>
<text x="810.57" y="522" text-anchor="middle" font-family="Arial" font-size="22" font-weight="700">350</text>
<text x="932.00" y="522" text-anchor="middle" font-family="Arial" font-size="22" font-weight="700">400</text>
<polyline points="82.00,383.24 203.43,312.49 324.86,248.83 446.29,211.00 567.71,174.32 689.14,144.78 810.57,124.31 932.00,94.82" fill="none" stroke="#1d4ed8" stroke-width="2.1"/>
<polygon points="82.00,379.04 86.20,383.24 82.00,387.44 77.80,383.24" fill="#1d4ed8" stroke="white" stroke-width="0.8"/>
<polygon points="203.43,308.29 207.63,312.49 203.43,316.69 199.23,312.49" fill="#1d4ed8" stroke="white" stroke-width="0.8"/>
<polygon points="324.86,244.63 329.06,248.83 324.86,253.03 320.66,248.83" fill="#1d4ed8" stroke="white" stroke-width="0.8"/>
<polygon points="446.29,206.80 450.49,211.00 446.29,215.20 442.09,211.00" fill="#1d4ed8" stroke="white" stroke-width="0.8"/>
<polygon points="567.71,170.12 571.91,174.32 567.71,178.52 563.51,174.32" fill="#1d4ed8" stroke="white" stroke-width="0.8"/>
<polygon points="689.14,140.58 693.34,144.78 689.14,148.98 684.94,144.78" fill="#1d4ed8" stroke="white" stroke-width="0.8"/>
<polygon points="810.57,120.11 814.77,124.31 810.57,128.51 806.37,124.31" fill="#1d4ed8" stroke="white" stroke-width="0.8"/>
<polygon points="932.00,90.62 936.20,94.82 932.00,99.02 927.80,94.82" fill="#1d4ed8" stroke="white" stroke-width="0.8"/>
<polyline points="82.00,402.78 203.43,359.44 324.86,318.92 446.29,289.96 567.71,238.05 689.14,198.40 810.57,167.09 932.00,141.21" fill="none" stroke="#e11d48" stroke-width="2.8"/>
<text x="82.00" y="405.80" text-anchor="middle" font-family="Arial" font-size="15.6" font-weight="700" fill="#e11d48">*</text>
<text x="203.43" y="362.45" text-anchor="middle" font-family="Arial" font-size="15.6" font-weight="700" fill="#e11d48">*</text>
<text x="324.86" y="321.93" text-anchor="middle" font-family="Arial" font-size="15.6" font-weight="700" fill="#e11d48">*</text>
<text x="446.29" y="292.97" text-anchor="middle" font-family="Arial" font-size="15.6" font-weight="700" fill="#e11d48">*</text>
<text x="567.71" y="241.06" text-anchor="middle" font-family="Arial" font-size="15.6" font-weight="700" fill="#e11d48">*</text>
<text x="689.14" y="201.41" text-anchor="middle" font-family="Arial" font-size="15.6" font-weight="700" fill="#e11d48">*</text>
<text x="810.57" y="170.11" text-anchor="middle" font-family="Arial" font-size="15.6" font-weight="700" fill="#e11d48">*</text>
<text x="932.00" y="144.22" text-anchor="middle" font-family="Arial" font-size="15.6" font-weight="700" fill="#e11d48">*</text>
<polyline points="82.00,429.45 203.43,357.12 324.86,309.72 446.29,255.54 567.71,217.33 689.14,188.50 810.57,158.16 932.00,131.62" fill="none" stroke="#8b5cf6" stroke-width="2.8"/>
<polygon points="82.00,424.25 87.20,429.45 82.00,434.65 76.80,429.45" fill="#8b5cf6" stroke="white" stroke-width="0.8"/>
<polygon points="203.43,351.92 208.63,357.12 203.43,362.32 198.23,357.12" fill="#8b5cf6" stroke="white" stroke-width="0.8"/>
<polygon points="324.86,304.52 330.06,309.72 324.86,314.92 319.66,309.72" fill="#8b5cf6" stroke="white" stroke-width="0.8"/>
<polygon points="446.29,250.34 451.49,255.54 446.29,260.74 441.09,255.54" fill="#8b5cf6" stroke="white" stroke-width="0.8"/>
<polygon points="567.71,212.13 572.91,217.33 567.71,222.53 562.51,217.33" fill="#8b5cf6" stroke="white" stroke-width="0.8"/>
<polygon points="689.14,183.30 694.34,188.50 689.14,193.70 683.94,188.50" fill="#8b5cf6" stroke="white" stroke-width="0.8"/>
<polygon points="810.57,152.96 815.77,158.16 810.57,163.36 805.37,158.16" fill="#8b5cf6" stroke="white" stroke-width="0.8"/>
<polygon points="932.00,126.42 937.20,131.62 932.00,136.82 926.80,131.62" fill="#8b5cf6" stroke="white" stroke-width="0.8"/>
<polyline points="82.00,412.53 203.43,351.26 324.86,295.83 446.29,249.79 567.71,220.47 689.14,182.11 810.57,157.51 932.00,143.40" fill="none" stroke="#06b6d4" stroke-width="2.8"/>
<rect x="76.80" y="407.33" width="10.40" height="10.40" fill="#06b6d4" stroke="white" stroke-width="0.8"/>
<rect x="198.23" y="346.06" width="10.40" height="10.40" fill="#06b6d4" stroke="white" stroke-width="0.8"/>
<rect x="319.66" y="290.63" width="10.40" height="10.40" fill="#06b6d4" stroke="white" stroke-width="0.8"/>
<rect x="441.09" y="244.59" width="10.40" height="10.40" fill="#06b6d4" stroke="white" stroke-width="0.8"/>
<rect x="562.51" y="215.27" width="10.40" height="10.40" fill="#06b6d4" stroke="white" stroke-width="0.8"/>
<rect x="683.94" y="176.91" width="10.40" height="10.40" fill="#06b6d4" stroke="white" stroke-width="0.8"/>
<rect x="805.37" y="152.31" width="10.40" height="10.40" fill="#06b6d4" stroke="white" stroke-width="0.8"/>
<rect x="926.80" y="138.20" width="10.40" height="10.40" fill="#06b6d4" stroke="white" stroke-width="0.8"/>
<polyline points="82.00,376.25 203.43,314.36 324.86,240.68 446.29,201.06 567.71,165.94 689.14,134.96 810.57,112.33 932.00,88.55" fill="none" stroke="#f97316" stroke-width="2.8"/>
<circle cx="82.00" cy="376.25" r="5.20" fill="#f97316" stroke="white" stroke-width="1.1"/>
<circle cx="203.43" cy="314.36" r="5.20" fill="#f97316" stroke="white" stroke-width="1.1"/>
<circle cx="324.86" cy="240.68" r="5.20" fill="#f97316" stroke="white" stroke-width="1.1"/>
<circle cx="446.29" cy="201.06" r="5.20" fill="#f97316" stroke="white" stroke-width="1.1"/>
<circle cx="567.71" cy="165.94" r="5.20" fill="#f97316" stroke="white" stroke-width="1.1"/>
<circle cx="689.14" cy="134.96" r="5.20" fill="#f97316" stroke="white" stroke-width="1.1"/>
<circle cx="810.57" cy="112.33" r="5.20" fill="#f97316" stroke="white" stroke-width="1.1"/>
<circle cx="932.00" cy="88.55" r="5.20" fill="#f97316" stroke="white" stroke-width="1.1"/>
<rect x="561.00" y="248.00" width="357.00" height="224.00" fill="white" fill-opacity="0.86" stroke="#cfcfcf" stroke-width="0.8" rx="4"/>
<line x1="575.00" y1="282.00" x2="599.00" y2="282.00" stroke="#f97316" stroke-width="2.8"/>
<circle cx="587.00" cy="282.00" r="4.80" fill="#f97316" stroke="white" stroke-width="1.1"/>
<text x="613.00" y="290.00" font-family="Arial" font-size="22" font-weight="700" fill="#111">FD-EMC(qwen3.7-flash)</text>
<line x1="575.00" y1="322.00" x2="599.00" y2="322.00" stroke="#1d4ed8" stroke-width="2.8"/>
<polygon points="587.00,317.20 591.80,322.00 587.00,326.80 582.20,322.00" fill="#1d4ed8" stroke="white" stroke-width="0.8"/>
<text x="613.00" y="330.00" font-family="Arial" font-size="22" font-weight="700" fill="#111">FD-EMC(deepseek-v4-flash)</text>
<line x1="575.00" y1="362.00" x2="599.00" y2="362.00" stroke="#e11d48" stroke-width="2.8"/>
<text x="587.00" y="364.78" text-anchor="middle" font-family="Arial" font-size="14.4" font-weight="700" fill="#e11d48">*</text>
<text x="613.00" y="370.00" font-family="Arial" font-size="22" font-weight="700" fill="#111">Thompson Sampling</text>
<line x1="575.00" y1="402.00" x2="599.00" y2="402.00" stroke="#8b5cf6" stroke-width="2.8"/>
<polygon points="587.00,397.20 591.80,402.00 587.00,406.80 582.20,402.00" fill="#8b5cf6" stroke="white" stroke-width="0.8"/>
<text x="613.00" y="410.00" font-family="Arial" font-size="22" font-weight="700" fill="#111">CP-SAT</text>
<line x1="575.00" y1="442.00" x2="599.00" y2="442.00" stroke="#06b6d4" stroke-width="2.8"/>
<rect x="582.20" y="437.20" width="9.60" height="9.60" fill="#06b6d4" stroke="white" stroke-width="0.8"/>
<text x="613.00" y="450.00" font-family="Arial" font-size="22" font-weight="700" fill="#111">DQN</text>
<text x="507.0" y="548" text-anchor="middle" font-family="Arial" font-size="28" font-weight="700">mRSU/sRSU Cache Capacity</text>
<text x="26.0" y="259.0" text-anchor="middle" transform="rotate(-90 26.0 259.0)" font-family="Arial" font-size="28" font-weight="700">Average Cache Hit Ratio (%)</text>
</svg>