<svg xmlns="http://www.w3.org/2000/svg" width="900" height="520" viewBox="0 0 900 520">
<rect width="100%" height="100%" fill="white"/>
<text x="450.0" y="28" text-anchor="middle" font-family="Arial" font-size="20">Local RSU CHR vs Synchronized RSU Cache Capacity</text>
<line x1="80" y1="50" x2="80" y2="450" stroke="#333"/>
<line x1="80" y1="450" x2="720" y2="450" stroke="#333"/>
<line x1="80" y1="450.00" x2="720" y2="450.00" stroke="#ddd"/>
<text x="70" y="454.00" text-anchor="end" font-family="Arial" font-size="12">0.00</text>
<line x1="80" y1="370.00" x2="720" y2="370.00" stroke="#ddd"/>
<text x="70" y="374.00" text-anchor="end" font-family="Arial" font-size="12">0.16</text>
<line x1="80" y1="290.00" x2="720" y2="290.00" stroke="#ddd"/>
<text x="70" y="294.00" text-anchor="end" font-family="Arial" font-size="12">0.32</text>
<line x1="80" y1="210.00" x2="720" y2="210.00" stroke="#ddd"/>
<text x="70" y="214.00" text-anchor="end" font-family="Arial" font-size="12">0.49</text>
<line x1="80" y1="130.00" x2="720" y2="130.00" stroke="#ddd"/>
<text x="70" y="134.00" text-anchor="end" font-family="Arial" font-size="12">0.65</text>
<line x1="80" y1="50.00" x2="720" y2="50.00" stroke="#ddd"/>
<text x="70" y="54.00" text-anchor="end" font-family="Arial" font-size="12">0.81</text>
<text x="80.00" y="472" text-anchor="middle" font-family="Arial" font-size="12">50</text>
<text x="171.43" y="472" text-anchor="middle" font-family="Arial" font-size="12">100</text>
<text x="262.86" y="472" text-anchor="middle" font-family="Arial" font-size="12">150</text>
<text x="354.29" y="472" text-anchor="middle" font-family="Arial" font-size="12">200</text>
<text x="445.71" y="472" text-anchor="middle" font-family="Arial" font-size="12">250</text>
<text x="537.14" y="472" text-anchor="middle" font-family="Arial" font-size="12">300</text>
<text x="628.57" y="472" text-anchor="middle" font-family="Arial" font-size="12">350</text>
<text x="720.00" y="472" text-anchor="middle" font-family="Arial" font-size="12">400</text>
<polyline points="80.00,337.22 171.43,301.33 262.86,267.78 354.29,243.81 445.71,200.84 537.14,168.01 628.57,142.09 720.00,120.66" fill="none" stroke="#d62728" stroke-width="2"/>
<circle cx="80.00" cy="337.22" r="3" fill="#d62728"/>
<circle cx="171.43" cy="301.33" r="3" fill="#d62728"/>
<circle cx="262.86" cy="267.78" r="3" fill="#d62728"/>
<circle cx="354.29" cy="243.81" r="3" fill="#d62728"/>
<circle cx="445.71" cy="200.84" r="3" fill="#d62728"/>
<circle cx="537.14" cy="168.01" r="3" fill="#d62728"/>
<circle cx="628.57" cy="142.09" r="3" fill="#d62728"/>
<circle cx="720.00" cy="120.66" r="3" fill="#d62728"/>
<line x1="745" y1="70" x2="765" y2="70" stroke="#d62728" stroke-width="2"/>
<text x="773" y="74" font-family="Arial" font-size="12">Thompson Sampling</text>
<polyline points="80.00,359.30 171.43,299.41 262.86,260.17 354.29,215.32 445.71,183.69 537.14,159.82 628.57,134.70 720.00,112.73" fill="none" stroke="#1f77b4" stroke-width="2"/>
<circle cx="80.00" cy="359.30" r="3" fill="#1f77b4"/>
<circle cx="171.43" cy="299.41" r="3" fill="#1f77b4"/>
<circle cx="262.86" cy="260.17" r="3" fill="#1f77b4"/>
<circle cx="354.29" cy="215.32" r="3" fill="#1f77b4"/>
<circle cx="445.71" cy="183.69" r="3" fill="#1f77b4"/>
<circle cx="537.14" cy="159.82" r="3" fill="#1f77b4"/>
<circle cx="628.57" cy="134.70" r="3" fill="#1f77b4"/>
<circle cx="720.00" cy="112.73" r="3" fill="#1f77b4"/>
<line x1="745" y1="92" x2="765" y2="92" stroke="#1f77b4" stroke-width="2"/>
<text x="773" y="96" font-family="Arial" font-size="12">CP-SAT</text>
<polyline points="80.00,318.68 171.43,263.10 262.86,206.03 354.29,171.50 445.71,140.99 537.14,117.25 628.57,98.37 720.00,79.63" fill="none" stroke="#2ca02c" stroke-width="2"/>
<circle cx="80.00" cy="318.68" r="3" fill="#2ca02c"/>
<circle cx="171.43" cy="263.10" r="3" fill="#2ca02c"/>
<circle cx="262.86" cy="206.03" r="3" fill="#2ca02c"/>
<circle cx="354.29" cy="171.50" r="3" fill="#2ca02c"/>
<circle cx="445.71" cy="140.99" r="3" fill="#2ca02c"/>
<circle cx="537.14" cy="117.25" r="3" fill="#2ca02c"/>
<circle cx="628.57" cy="98.37" r="3" fill="#2ca02c"/>
<circle cx="720.00" cy="79.63" r="3" fill="#2ca02c"/>
<line x1="745" y1="114" x2="765" y2="114" stroke="#2ca02c" stroke-width="2"/>
<text x="773" y="118" font-family="Arial" font-size="12">Ours</text>
<text x="400.0" y="500" text-anchor="middle" font-family="Arial" font-size="14">mRSU/fRSU Cache Capacity</text>
<text x="22" y="250.0" text-anchor="middle" transform="rotate(-90 22 250.0)" font-family="Arial" font-size="14">Local RSU CHR</text>
</svg>