<svg xmlns="http://www.w3.org/2000/svg" width="900" height="520" viewBox="0 0 900 520">
<rect width="100%" height="100%" fill="white"/>
<text x="450.0" y="28" text-anchor="middle" font-family="Arial" font-size="20">Baseline Local RSU CHR vs Synchronized RSU Cache Capacity</text>
<line x1="80" y1="50" x2="80" y2="450" stroke="#333"/>
<line x1="80" y1="450" x2="720" y2="450" stroke="#333"/>
<line x1="80" y1="450.00" x2="720" y2="450.00" stroke="#ddd"/>
<text x="70" y="454.00" text-anchor="end" font-family="Arial" font-size="12">0.00</text>
<line x1="80" y1="370.00" x2="720" y2="370.00" stroke="#ddd"/>
<text x="70" y="374.00" text-anchor="end" font-family="Arial" font-size="12">0.15</text>
<line x1="80" y1="290.00" x2="720" y2="290.00" stroke="#ddd"/>
<text x="70" y="294.00" text-anchor="end" font-family="Arial" font-size="12">0.30</text>
<line x1="80" y1="210.00" x2="720" y2="210.00" stroke="#ddd"/>
<text x="70" y="214.00" text-anchor="end" font-family="Arial" font-size="12">0.44</text>
<line x1="80" y1="130.00" x2="720" y2="130.00" stroke="#ddd"/>
<text x="70" y="134.00" text-anchor="end" font-family="Arial" font-size="12">0.59</text>
<line x1="80" y1="50.00" x2="720" y2="50.00" stroke="#ddd"/>
<text x="70" y="54.00" text-anchor="end" font-family="Arial" font-size="12">0.74</text>
<text x="80.00" y="472" text-anchor="middle" font-family="Arial" font-size="12">50</text>
<text x="171.43" y="472" text-anchor="middle" font-family="Arial" font-size="12">100</text>
<text x="262.86" y="472" text-anchor="middle" font-family="Arial" font-size="12">150</text>
<text x="354.29" y="472" text-anchor="middle" font-family="Arial" font-size="12">200</text>
<text x="445.71" y="472" text-anchor="middle" font-family="Arial" font-size="12">250</text>
<text x="537.14" y="472" text-anchor="middle" font-family="Arial" font-size="12">300</text>
<text x="628.57" y="472" text-anchor="middle" font-family="Arial" font-size="12">350</text>
<text x="720.00" y="472" text-anchor="middle" font-family="Arial" font-size="12">400</text>
<polyline points="80.00,326.15 171.43,286.74 262.86,249.90 354.29,223.58 445.71,176.38 537.14,140.34 628.57,111.87 720.00,88.34" fill="none" stroke="#d62728" stroke-width="2"/>
<circle cx="80.00" cy="326.15" r="3" fill="#d62728"/>
<circle cx="171.43" cy="286.74" r="3" fill="#d62728"/>
<circle cx="262.86" cy="249.90" r="3" fill="#d62728"/>
<circle cx="354.29" cy="223.58" r="3" fill="#d62728"/>
<circle cx="445.71" cy="176.38" r="3" fill="#d62728"/>
<circle cx="537.14" cy="140.34" r="3" fill="#d62728"/>
<circle cx="628.57" cy="111.87" r="3" fill="#d62728"/>
<circle cx="720.00" cy="88.34" r="3" fill="#d62728"/>
<line x1="745" y1="70" x2="765" y2="70" stroke="#d62728" stroke-width="2"/>
<text x="773" y="74" font-family="Arial" font-size="12">Thompson Sampling</text>
<polyline points="80.00,350.39 171.43,284.63 262.86,241.54 354.29,192.29 445.71,157.55 537.14,131.34 628.57,103.76 720.00,79.63" fill="none" stroke="#1f77b4" stroke-width="2"/>
<circle cx="80.00" cy="350.39" r="3" fill="#1f77b4"/>
<circle cx="171.43" cy="284.63" r="3" fill="#1f77b4"/>
<circle cx="262.86" cy="241.54" r="3" fill="#1f77b4"/>
<circle cx="354.29" cy="192.29" r="3" fill="#1f77b4"/>
<circle cx="445.71" cy="157.55" r="3" fill="#1f77b4"/>
<circle cx="537.14" cy="131.34" r="3" fill="#1f77b4"/>
<circle cx="628.57" cy="103.76" r="3" fill="#1f77b4"/>
<circle cx="720.00" cy="79.63" r="3" fill="#1f77b4"/>
<line x1="745" y1="92" x2="765" y2="92" stroke="#1f77b4" stroke-width="2"/>
<text x="773" y="96" font-family="Arial" font-size="12">CP-SAT</text>
<text x="400.0" y="500" text-anchor="middle" font-family="Arial" font-size="14">mRSU/fRSU Cache Capacity</text>
<text x="22" y="250.0" text-anchor="middle" transform="rotate(-90 22 250.0)" font-family="Arial" font-size="14">Local RSU CHR</text>
</svg>