<svg xmlns="http://www.w3.org/2000/svg" width="900" height="520" viewBox="0 0 900 520">
<rect width="100%" height="100%" fill="white"/>
<text x="450.0" y="28" text-anchor="middle" font-family="Arial" font-size="20">Ablation Per-round Local RSU CHR at RSU Cache Capacity 200</text>
<line x1="80" y1="50" x2="80" y2="450" stroke="#333"/>
<line x1="80" y1="450" x2="720" y2="450" stroke="#333"/>
<line x1="80" y1="450.00" x2="720" y2="450.00" stroke="#ddd"/>
<text x="70" y="454.00" text-anchor="end" font-family="Arial" font-size="12">0.00</text>
<line x1="80" y1="370.00" x2="720" y2="370.00" stroke="#ddd"/>
<text x="70" y="374.00" text-anchor="end" font-family="Arial" font-size="12">0.13</text>
<line x1="80" y1="290.00" x2="720" y2="290.00" stroke="#ddd"/>
<text x="70" y="294.00" text-anchor="end" font-family="Arial" font-size="12">0.27</text>
<line x1="80" y1="210.00" x2="720" y2="210.00" stroke="#ddd"/>
<text x="70" y="214.00" text-anchor="end" font-family="Arial" font-size="12">0.40</text>
<line x1="80" y1="130.00" x2="720" y2="130.00" stroke="#ddd"/>
<text x="70" y="134.00" text-anchor="end" font-family="Arial" font-size="12">0.54</text>
<line x1="80" y1="50.00" x2="720" y2="50.00" stroke="#ddd"/>
<text x="70" y="54.00" text-anchor="end" font-family="Arial" font-size="12">0.67</text>
<text x="80.00" y="472" text-anchor="middle" font-family="Arial" font-size="12">0</text>
<text x="151.11" y="472" text-anchor="middle" font-family="Arial" font-size="12">1</text>
<text x="222.22" y="472" text-anchor="middle" font-family="Arial" font-size="12">2</text>
<text x="293.33" y="472" text-anchor="middle" font-family="Arial" font-size="12">3</text>
<text x="364.44" y="472" text-anchor="middle" font-family="Arial" font-size="12">4</text>
<text x="435.56" y="472" text-anchor="middle" font-family="Arial" font-size="12">5</text>
<text x="506.67" y="472" text-anchor="middle" font-family="Arial" font-size="12">6</text>
<text x="577.78" y="472" text-anchor="middle" font-family="Arial" font-size="12">7</text>
<text x="648.89" y="472" text-anchor="middle" font-family="Arial" font-size="12">8</text>
<text x="720.00" y="472" text-anchor="middle" font-family="Arial" font-size="12">9</text>
<polyline points="80.00,155.01 151.11,146.35 222.22,149.98 293.33,133.20 364.44,143.75 435.56,130.83 506.67,82.55 577.78,101.89 648.89,102.27 720.00,79.63" fill="none" stroke="#d62728" stroke-width="2"/>
<circle cx="80.00" cy="155.01" r="3" fill="#d62728"/>
<circle cx="151.11" cy="146.35" r="3" fill="#d62728"/>
<circle cx="222.22" cy="149.98" r="3" fill="#d62728"/>
<circle cx="293.33" cy="133.20" r="3" fill="#d62728"/>
<circle cx="364.44" cy="143.75" r="3" fill="#d62728"/>
<circle cx="435.56" cy="130.83" r="3" fill="#d62728"/>
<circle cx="506.67" cy="82.55" r="3" fill="#d62728"/>
<circle cx="577.78" cy="101.89" r="3" fill="#d62728"/>
<circle cx="648.89" cy="102.27" r="3" fill="#d62728"/>
<circle cx="720.00" cy="79.63" r="3" fill="#d62728"/>
<line x1="745" y1="70" x2="765" y2="70" stroke="#d62728" stroke-width="2"/>
<text x="773" y="74" font-family="Arial" font-size="12">Static mRSU</text>
<text x="400.0" y="500" text-anchor="middle" font-family="Arial" font-size="14">Round</text>
<text x="22" y="250.0" text-anchor="middle" transform="rotate(-90 22 250.0)" font-family="Arial" font-size="14">Local RSU CHR</text>
</svg>